# AST/ASF file generated using VICON BodyLanguage
# -----------------------------------------------
:version 1.10
:name VICON
:units
  mass 1.0
  length 0.45
  angle deg
:documentation
   .ast/.asf automatically generated from VICON data using
   VICON BodyBuilder and BodyLanguage model FoxedUp or BRILLIANT.MOD
:root
   order TX TY TZ RX RY RZ
   axis XYZ
   position 0 0 0  
   orientation 0 0 0 
:bonedata
  begin
     id 1 
     name lhipjoint
     direction 0.660183 -0.676772 0.325788 
     length 2.75133 
     axis 0 0 0  XYZ
  end
  begin
     id 2 
     name lfemur
     direction 0.34202 -0.939693 0  
     length 7.70317  
     axis 0 0 20  XYZ
    dof rx ry rz
    limits (-160.0 20.0)
           (-70.0 70.0)
           (-60.0 70.0)
  end
  begin
     id 3 
     name ltibia
     direction 0.342105 -0.939662 0   
     length 7.18701   
     axis 0 0 20   XYZ
    dof rx
    limits (-10.0 170.0)
  end
  begin
     id 4 
     name lfoot
     direction 0.14163 -0.389126 0.910232   
     length 2.41719   
     axis -90 7.62852e-016 20   XYZ
    dof rx rz
    limits (-45.0 90.0)
           (-70.0 20.0)
  end
  begin
     id 5 
     name ltoes
     direction 1.53533e-011 -4.21926e-011 1   
     length 1.18611   
     axis -90 7.62852e-016 20   XYZ
    dof rx
    limits (-90.0 20.0)
  end
  begin
     id 6 
     name rhipjoint
     direction -0.6658 -0.67229 0.323631   
     length 2.76968  
     axis 0 0 0  XYZ 
  end
  begin
     id 7 
     name rfemur
     direction -0.34202 -0.939693 0   
     length 7.92547   
     axis 0 0 -20   XYZ
    dof rx ry rz
    limits (-160.0 20.0)
           (-70.0 70.0)
           (-70.0 60.0)
  end
  begin
     id 8 
     name rtibia
     direction -0.342022 -0.939692 0   
     length 7.22641   
     axis 0 0 -20   XYZ
    dof rx
    limits (-10.0 170.0)
 end
 begin
     id 9 
     name rfoot
     direction -0.105675 -0.29034 0.951071   
     length 2.48149  
     axis -90 -7.62852e-016 -20   XYZ
    dof rx rz
    limits (-45.0 90.0)
           (-20.0 70.0)
  end
  begin
     id 10 
     name rtoes
     direction -1.5349e-011 -4.21859e-011 1   
     length 1.23343   
     axis -90 -7.62852e-016 -20   XYZ
    dof rx
    limits (-90.0 20.0)
  end
  begin
     id 11 
     name lowerback
     direction 0.0104173 0.993624 -0.112266   
     length 2.00527   
     axis 0 0 0   XYZ
    dof rx ry rz
    limits (-20.0 45.0)
           (-30.0 30.0)
           (-30.0 30.0)
  end
  begin
     id 12 
     name upperback
     direction 0.00733149 0.999856 -0.0152913   
     length 2.01385   
     axis 0 0 0   XYZ
    dof rx ry rz
    limits (-20.0 45.0)
           (-30.0 30.0)
           (-30.0 30.0)
  end
  begin
     id 13 
     name thorax
     direction 0.0026304 0.999318 0.036841   
     length 2.03734   
     axis 0 0 0   XYZ
    dof rx ry rz
    limits (-20.0 45.0)
           (-30.0 30.0)
           (-30.0 30.0)
  end
  begin
     id 14 
     name lowerneck
     direction 0.0293154 0.998757 0.0403082   
     length 1.65303   
     axis 0 0 0   XYZ
    dof rx ry rz
    limits (-20.0 45.0)
           (-30.0 30.0)
           (-30.0 30.0)
  end
  begin
     id 15 
     name upperneck
     direction -0.0376619 0.998184 -0.0470083   
     length 1.60926   
     axis 0 0 0   XYZ
    dof rx ry rz
    limits (-20.0 45.0)
           (-30.0 30.0)
           (-30.0 30.0)
  end
  begin
     id 16
     name head
     direction -0.0170133 0.999635 -0.0209778  
     length 1.73625  
     axis 0 0 0   XYZ
    dof rx ry rz
    limits (-20.0 45.0)
           (-30.0 30.0)
           (-30.0 30.0)
  end
  begin
     id 17 
     name lclavicle
     direction 0.919857 0.39181 -0.0186333  
     length 3.75313  
     axis 0 0 0   XYZ
    dof ry rz
    limits (-20.0 10.0)
           (0.0 20.0)
  end
  begin
     id 18 
     name lhumerus
     direction 1 -4.48988e-011 1.44029e-027   
     length 5.49313   
     axis 180 -30 -90   XYZ
    dof rx ry rz
    limits (-60.0 90.0)
           (-90.0 90.0)
           (-90.0 90.0)
  end
  begin
     id 19
     name lradius
     direction 1 -4.48924e-011 7.46281e-027   
     length 3.29037   
     axis 180 -30 -90   XYZ
    dof rx
    limits (-10.0 170.0)
  end
  begin
     id 20
     name lwrist
     direction 1 -4.48955e-011 2.19879e-026   
     length 1.64519   
     axis -1.34358e-014 90 90   XYZ
    dof ry
    limits (-180.0 0.0)
 end
  begin
     id 21 
     name lhand
     direction 1 -4.48978e-011 4.39747e-026   
     length 0.729656   
     axis -2.80598e-014 90 90   XYZ
    dof rx rz
    limits (-90.0 90.0)
           (-45.0 45.0)
  end
  begin
     id 22 
     name lfingers
     direction 1 -4.49071e-011 8.79411e-026   
     length 0.588268   
     axis -5.61193e-014 90 90   XYZ
    dof rx
    limits (0.0 90.0)
  end
  begin
     id 23
     name lthumb
     direction 0.707107 -6.34817e-011 0.707107   
     length 0.844638   
     axis -90 45 -9.86923e-015   XYZ
    dof rx rz
    limits (-45.0 45.0)
           (-45.0 45.0)
  end
  begin
     id 24 
     name rclavicle
     direction -0.919898 0.388279 0.0550233   
     length 3.7171  
     axis 0 0 0   XYZ 
    dof ry rz
    limits (-10.0 20.0)
           (-20.0 0.0)
  end
  begin
     id 25 
     name rhumerus
     direction -1 -4.48968e-011 9.98372e-028  
     length 5.23684   
     axis 180 30 90   XYZ
    dof rx ry rz
    limits (-90.0 60.0)
           (-90.0 90.0)
           (-90.0 90.0)
  end
  begin
     id 26 
     name rradius
     direction -1 -4.48956e-011 1.01023e-026   
     length 3.38251   
     axis 180 30 90   XYZ
    dof rx
    limits (-10.0 170.0)
  end
  begin
     id 27 
     name rwrist
     direction -1 -4.4892e-011 2.19886e-026   
     length 1.69126   
     axis -1.34358e-014 -90 -90   XYZ
    dof ry
    limits (-180.0 0.0)
  end
  begin
     id 28
     name rhand
     direction -1 -4.49024e-011 4.39727e-026   
     length 0.691454   
     axis -2.80598e-014 -90 -90   XYZ
    dof rx rz
    limits (-90.0 90.0)
           (-45.0 45.0)
  end
  begin
     id 29
     name rfingers
     direction -1 -4.49097e-011 8.79388e-026   
     length 0.557468   
     axis -5.61193e-014 -90 -90   XYZ
    dof rx
    limits (0.0 90.0)
  end
  begin
     id 30
     name rthumb
     direction -0.707107 -6.34938e-011 0.707107   
     length 0.800416   
     axis -90 -45 9.86923e-015   XYZ
    dof rx rz
    limits (-45.0 45.0)
           (-45.0 45.0)
  end
:hierarchy
  begin
    root lhipjoint rhipjoint lowerback
    lhipjoint lfemur
    lfemur ltibia
    ltibia lfoot
    lfoot ltoes
    rhipjoint rfemur
    rfemur rtibia
    rtibia rfoot
    rfoot rtoes
    lowerback upperback
    upperback thorax
    thorax lowerneck lclavicle rclavicle
    lowerneck upperneck
    upperneck head
    lclavicle lhumerus
    lhumerus lradius
    lradius lwrist
    lwrist lhand lthumb
    lhand lfingers
    rclavicle rhumerus
    rhumerus rradius
    rradius rwrist
    rwrist rhand rthumb
    rhand rfingers
  end

#!OML:ASF H:\BabyWalks\Project 1\Capture day 1\Session 1\baby.ASF
:FULLY-SPECIFIED
:DEGREES
64
root -37.9425 17.086 -3.29 -24.9629 77.1357 -29.5703
lowerback 15.7884 0.62528 -4.74728
upperback 6.51171 0.423158 -0.472647
thorax -1.94339 0.272992 2.10951
lowerneck -1.16933 2.61679 0.206658
upperneck -16.1036 4.37696 2.92473
head -4.69873 2.16292 0.690682
rclavicle -5.56597e-015 2.06736e-014
rhumerus -46.9609 10.2646 -86.8825
rradius 39.0645
rwrist 4.83287
rhand -2.81019 -15.3162
rfingers 7.12502
rthumb 22.8961 -43.9768
lclavicle -5.56597e-015 2.06736e-014
lhumerus -43.6238 2.20832 76.709
lradius 51.7487
lwrist 2.58983
lhand -0.175995 9.99766
lfingers 7.12502
lthumb 25.4218 38.3225
rfemur -2.55902 9.79033 23.6516
rtibia 37.2779
rfoot -21.8745 -4.51447
rtoes -30.5563
lfemur -21.3729 -4.90177 -11.3757
ltibia 46.2067
lfoot -25.9339 -17.4782
ltoes 13.0398
65
root -37.8928 17.0886 -3.29877 -25.0074 77.0758 -29.5443
lowerback 15.8378 0.659513 -4.91088
upperback 6.52224 0.440513 -0.589568
thorax -1.95817 0.281857 2.07564
lowerneck -1.1611 2.60818 0.179873
upperneck -16.0454 4.39493 3.16053
head -4.68813 2.16128 0.767262
rclavicle -1.66979e-014 1.59028e-014
rhumerus -46.9637 10.4347 -87.1539
rradius 39.377
rwrist 4.57256
rhand -2.86035 -15.2363
rfingers 7.12502
rthumb 22.848 -43.9029
lclavicle -1.66979e-014 1.59028e-014
lhumerus -43.4822 2.42404 76.3989
lradius 51.7358
lwrist 2.55144
lhand -0.335634 10.0267
lfingers 7.12502
lthumb 25.2689 38.3733
rfemur -3.26845 9.60053 23.4405
rtibia 38.9184
rfoot -21.3315 -3.29988
rtoes -30.4185
lfemur -21.0313 -4.90921 -11.4563
ltibia 46.0883
lfoot -26.1298 -17.3784
ltoes 12.9457
66
root -37.8435 17.0914 -3.30667 -25.0626 77.0285 -29.5263
lowerback 15.8984 0.687525 -5.0719
upperback 6.52797 0.449087 -0.703931
thorax -1.98325 0.286692 2.04433
lowerneck -1.14778 2.60015 0.15943
upperneck -15.9865 4.41128 3.38028
head -4.67766 2.15926 0.837828
rclavicle 1.03368e-014 -3.18055e-014
rhumerus -46.9665 10.5869 -87.4019
rradius 39.7251
rwrist 4.26619
rhand -2.9466 -15.144
rfingers 7.12502
rthumb 22.7652 -43.8208
lclavicle 1.03368e-014 -3.18055e-014
lhumerus -43.3521 2.61827 76.1007
lradius 51.743
lwrist 2.53258
lhand -0.506227 10.0487
lfingers 7.12502
lthumb 25.1054 38.4182
rfemur -3.9863 9.42544 23.2241
rtibia 40.5443
rfoot -20.6677 -2.06735
rtoes -30.1689
lfemur -20.6855 -4.94784 -11.5433
ltibia 45.9616
lfoot -26.3159 -17.2425
ltoes 12.858
67
root -37.7944 17.0942 -3.3136 -25.1328 76.997 -29.519
lowerback 15.9673 0.710689 -5.23372
upperback 6.53244 0.450636 -0.813548
thorax -2.01359 0.288209 2.01952
lowerneck -1.1298 2.59065 0.141032
upperneck -15.9284 4.42366 3.58714
head -4.66783 2.15578 0.904147
rclavicle 7.95139e-015 1.59028e-015
rhumerus -46.9717 10.7209 -87.6246
rradius 40.1097
rwrist 3.90353
rhand -3.07602 -15.0509
rfingers 7.12502
rthumb 22.641 -43.7429
lclavicle 7.95139e-015 1.59028e-015
lhumerus -43.2275 2.78439 75.8203
lradius 51.7693
lwrist 2.53426
lhand -0.677559 10.0707
lfingers 7.12502
lthumb 24.9412 38.4631
rfemur -4.69799 9.29038 23.01
rtibia 42.1365
rfoot -19.8834 -0.863083
rtoes -29.8152
lfemur -20.332 -5.02277 -11.6368
ltibia 45.8211
lfoot -26.5019 -17.0672
ltoes 12.7294
68
root -37.7455 17.0967 -3.31944 -25.2214 76.9828 -29.5245
lowerback 16.0486 0.726508 -5.39346
upperback 6.53526 0.441914 -0.921581
thorax -2.05133 0.284967 1.99682
lowerneck -1.11134 2.58137 0.126134
upperneck -15.8699 4.43483 3.78395
head -4.65766 2.15207 0.966826
rclavicle -5.56597e-015 9.54166e-015
rhumerus -46.9814 10.834 -87.8257
rradius 40.5259
rwrist 3.48198
rhand -3.24289 -14.9431
rfingers 7.12502
rthumb 22.4808 -43.6546
lclavicle -5.56597e-015 9.54166e-015
lhumerus -43.1075 2.91831 75.5535
lradius 51.8138
lwrist 2.55872
lhand -0.84452 10.0931
lfingers 7.12502
lthumb 24.7812 38.5076
rfemur -5.37868 9.20773 22.8045
rtibia 43.6727
rfoot -19.0445 0.257952
rtoes -29.3417
lfemur -19.9692 -5.13544 -11.7368
ltibia 45.6667
lfoot -26.682 -16.8592
ltoes 12.5777
